PathFileType	4	(X/Y/Z)	C:/Users/beibeiliu/ov580/test_trc/User2\sequence.2_training_dense_left.trc
DataRate	CameraRate	NumFrames	NumMarkers	Units	OrigDataRate	OrigDataStartFrame	OrigNumFrames
120	120	7	19	mm	120	27	78
Frame#	Time	ThumbCMC			ThumbMCP			ThumbIP			ThumbTip			IndexMCP			IndexPIP			IndexTip			MiddleMCP			MiddlePIP			MiddleTip			RingMCP			RingPIP			RingTip			PinkyMCP			PinkyPIP			PinkyTip			BackHand1			BackHand2			BackHand3	
		X0	Y0	Z0	X1	Y1	Z1	X2	Y2	Z2	X3	Y3	Z3	X4	Y4	Z4	X5	Y5	Z5	X6	Y6	Z6	X7	Y7	Z7	X8	Y8	Z8	X9	Y9	Z9	X10	Y10	Z10	X11	Y11	Z11	X12	Y12	Z12	X13	Y13	Z13	X14	Y14	Z14	X15	Y15	Z15	X16	Y16	Z16	X17	Y17	Z17	X18	Y18	Z18	
26	0.216667	-275.775	-44.4217	-33.2772	-276.306	-31.8213	-66.8993	-272.351	-31.5337	-100.253	-259.612	-38.9016	-122.564	-280.344	-93.672	-98.9211	-261.901	-83.953	-125.869	-247.454	-53.9637	-116.635	-254.719	-106.127	-105.037	-242.367	-80.9265	-125.38	-232.182	-52.2562	-100.356	-235.899	-106.55	-102.486	-222.753	-79.758	-115.634	-224.207	-57.1153	-85.527	-213.655	-109.247	-86.2686	-208.991	-80.2946	-104.271	-209.74	-57.3473	-83.8371	-238.927	-111.412	-36.8306	-237.224	-100.777	-0.273911	-270.898	-87.6217	-23.2473	
27	0.225	-271.448	-35.7065	-27.5511	-269.595	-17.1295	-59.6491	-271.572	-14.3328	-98.0517	-264.944	-23.1927	-123.821	-300.815	-76.2342	-91.6643	-287.812	-65.2488	-123.961	-259.123	-48.0357	-116.102	-288.283	-90.1163	-103.314	-263.829	-75.0361	-125.183	-244.206	-48.7872	-97.9387	-265.88	-104.057	-100.623	-246.141	-81.0267	-116.633	-234.676	-62.671	-91.0403	-246.253	-113.94	-89.4457	-235.592	-90.8495	-108.964	-224.3	-67.4819	-88.0812	-266.091	-103.644	-34.9602	-254.002	-99.5694	-2.35102	-284.098	-77.3593	-21.2498	
28	0.233333	-260.869	-16.1223	-22.1127	-251.494	-4.61439	-50.5389	-251.913	5.99317	-85.6424	-252.063	-0.22264	-111.987	-312.693	-33.8467	-84.0905	-300.304	-29.6982	-113.244	-261.107	-24.5854	-109.666	-307.925	-52.5264	-91.2622	-282.68	-44.0059	-120.354	-251.634	-40.4679	-100.64	-293.999	-72.308	-98.7344	-270.9	-58.8312	-115.905	-248.26	-50.7013	-91.5254	-281.171	-90.2422	-87.8777	-259.694	-75.391	-110.865	-237.549	-62.02	-91.0278	-288.089	-86.4748	-35.0875	-270.81	-85.9252	0.0962954	-288.903	-52.8061	-11.3498	
29	0.241667	-243.083	-9.40863	-14.2746	-236.195	2.69605	-46.8621	-230.586	20.5274	-77.5195	-236.204	16.6133	-107.466	-305.007	1.18312	-70.5189	-294.48	7.62265	-102.842	-257.487	-0.725791	-103.656	-311.358	-18.7651	-84.3022	-287.916	-15.4722	-112.896	-251.082	-23.5041	-94.8662	-305.15	-38.5914	-89.7087	-282.622	-34.7645	-110.912	-253.726	-40.6763	-91.7503	-297.491	-59.6268	-82.6538	-276.058	-51.4882	-108.581	-248.918	-50.0457	-90.7932	-294.265	-57.5405	-25.845	-279.095	-67.9939	-0.156453	-283.141	-30.1213	-4.09448	
30	0.25	-229.913	-9.65666	-13.5451	-215.144	5.96949	-43.4768	-211.226	15.0369	-72.9582	-219.673	18.5939	-102.107	-281.506	32.3882	-63.9926	-275.304	30.0881	-93.4886	-243.499	5.58336	-98.0294	-296.287	11.3262	-72.5514	-277.698	8.18928	-106.45	-248.99	-15.296	-94.8104	-300.96	-7.59488	-83.1987	-279.12	-14.2719	-106.696	-251.626	-25.6946	-86.686	-300.527	-31.682	-79.1119	-280.633	-31.1868	-103.667	-249.258	-43.0788	-88.6398	-297.451	-36.0963	-22.9923	-281.589	-53.8393	4.00161	-271.844	-15.581	0.0640149	
31	0.258333	-208.557	-15.3904	-9.249	-189.183	-4.5343	-40.1592	-185.781	5.54915	-69.4796	-190.217	13.7134	-98.9063	-247.348	43.3631	-59.7538	-238.154	42.8163	-89.3632	-220.855	10.2621	-95.0746	-265.536	34.7982	-70.1515	-251.436	23.3064	-101.018	-230.938	-9.52939	-91.2408	-280.458	12.7938	-75.897	-264.554	6.11428	-100.715	-242.651	-20.8723	-85.1643	-289.409	-9.41941	-71.8125	-269.31	-15.8515	-100.844	-248.953	-35.2974	-89.2716	-281.96	-13.5652	-16.5192	-271.663	-36.2912	8.87691	-246.398	-2.83253	2.87347	
32	0.266667	-190.451	-20.4097	-8.97689	-170.698	-16.7639	-36.6513	-160.034	-8.41382	-69.5197	-169.757	-2.2014	-96.3703	-212.263	40.2685	-58.4271	-208.29	35.1979	-93.0659	-201.655	-0.214634	-95.644	-236.988	34.7589	-70.1922	-226.796	21.802	-103.653	-214.699	-14.6873	-90.7122	-252.208	20.754	-76.428	-242.413	5.83271	-102.274	-228.878	-23.4788	-84.1988	-268.714	0.0210993	-73.8631	-248.139	-12.3317	-97.1936	-235.614	-39.1363	-81.1983	-262.682	-1.60899	-17.045	-256.951	-24.811	10.6475	-229.748	-2.5835	1.66483	
